<?xml version="1.0" standalone="no"?><!DOCTYPE svg PUBLIC "-//W3C//DTD SVG 1.1//EN" "http://www.w3.org/Graphics/SVG/1.1/DTD/svg11.dtd"><svg t="1734176821404" class="icon" viewBox="0 0 1070 1024" version="1.1" xmlns="http://www.w3.org/2000/svg" p-id="904" width="25.078125" height="24" xmlns:xlink="http://www.w3.org/1999/xlink"><path d="M319.627636 1024c-82.292364 0-152.250182-28.858182-209.92-86.481455C52.130909 879.895273 23.272727 809.937455 23.272727 727.598545c0-34.769455 5.911273-68.468364 17.687273-101.143272a295.563636 295.563636 0 0 1 51.2-89.227637l224.814545-269.917091L183.854545 0h702.836364l-133.12 267.310545 224.814546 269.963637a295.563636 295.563636 0 0 1 51.2 89.181091c11.776 32.674909 17.687273 66.373818 17.687272 101.189818 0 82.292364-28.858182 152.250182-86.621091 209.92C902.842182 995.141818 832.930909 1024 750.917818 1024H319.627636z m215.645091-289.233455a99.607273 99.607273 0 0 1-73.169454-30.208 99.653818 99.653818 0 0 1-30.254546-73.169454c0-28.625455 10.100364-53.061818 30.254546-73.169455a99.607273 99.607273 0 0 1 73.169454-30.254545c28.625455 0 53.061818 10.100364 73.169455 30.254545 20.154182 20.154182 30.254545 44.544 30.254545 73.169455 0 28.625455-10.100364 53.061818-30.254545 73.169454a99.653818 99.653818 0 0 1-73.169455 30.208zM375.901091 239.988364h320l87.365818-175.988364H287.278545l88.622546 175.988364zM319.627636 960h431.290182c64.884364 0 119.854545-22.714182 164.864-68.142545 45.009455-45.381818 67.490909-100.119273 67.490909-164.212364 0-27.275636-4.514909-53.713455-13.591272-79.36a220.997818 220.997818 0 0 0-40.029091-69.678546l-229.096728-274.618181H371.572364l-229.422546 274.199272c-17.640727 20.852364-31.185455 44.171636-40.680727 69.957819a228.631273 228.631273 0 0 0-14.196364 79.499636c0 64.093091 22.714182 118.830545 68.142546 164.212364 45.381818 45.428364 100.119273 68.142545 164.212363 68.142545z" p-id="905"></path></svg>